<svg width="600.23" height="708.61" version="1.1" viewBox="0 0 8.5782 10.127" xml:space="preserve"
     xmlns="http://www.w3.org/2000/svg" xmlns:xlink="http://www.w3.org/1999/xlink">

    <defs>
        <pattern id="c" patternTransform="matrix(.014573 0 0 .013441 547.41 -13.128)" preserveAspectRatio="xMidYMid"
                 xlink:href="#a"/>
        <pattern id="e" x="-16" patternTransform="matrix(.01 0 0 .01 412.97 -10.926)" preserveAspectRatio="xMidYMid"
                 xlink:href="#a"/>
        <clipPath id="h">
            <path id="i"
                  d="m0.10549 0.1427c-0.042462-0.018359-0.051275 0.015021-0.035252 0.03922-0.045667-0.003338-0.056884 0.045062-0.028842 0.067593-0.033649 0.002503-0.044866 0.050903-0.021632 0.065089-0.042462 0.047565-0.0088129 0.10264 0.028842 0.10181-8.0116e-4 0.041724 0.024035 0.045062 0.036053 0.043393 0.01362 0.032545 0.052077 0.040889 0.067299 0.035883 0.01362 0.047565 0.069702 0.049234 0.085726 0.03171 0.036053 0.046731 0.09534 0.023365 0.098545 0 0.036854 0.0484 0.098545 0.017524 0.10015-0.015855 0.049673 0.041724 0.10175-0.00668 0.09534-0.025869 0.036854 0.020027 0.080118-0.00167 0.086527-0.057579 0.036053-0.00501 0.056082-0.050069 0.041661-0.075103 0.040059-0.017524 0.028041-0.072599 8.0168e-4 -0.097634 0.034451-0.035048 0.002402-0.083448-0.041661-0.099303 0.014421-0.028372-0.019228-0.050903-0.033649-0.046731-0.003205-0.035883-0.045667-0.035048-0.061691-0.017524-0.011216-0.015855-0.067299-0.018358-0.070504-0.006676-0.034451-0.01669-0.093738-0.009179-0.093738 0.006676-0.012819-0.015855-0.11056-0.009179-0.11377 0.00751 0 0-0.071305-0.002503-0.084925 0.016689-0.020831-0.010014-0.057685 0.009179-0.055282 0.026703z"/>
        </clipPath>


        <linearGradient id="g" x2="1" gradientTransform="matrix(-.052164 -.026925 -.022763 .061703 .31824 .46841)"
                        gradientUnits="userSpaceOnUse">
            <stop stop-color="#66c98e" offset="0"/>
            <stop stop-color="#4d56af" offset="1"/>
        </linearGradient>


        <linearGradient id="f" x2="1" gradientTransform="matrix(146.13,-153.85,147.16,152.78,9.8257,124.58)"
                        gradientUnits="userSpaceOnUse"><stop stop-color="#25316d" offset="0"/>
            <stop stop-color="#100f0d" offset="1"/></linearGradient>
        <linearGradient id="b" x2="1" gradientTransform="matrix(146.13,-153.85,147.16,152.78,9.8257,124.58)"
                        gradientUnits="userSpaceOnUse"><stop stop-color="#2a3c96" offset="0"/>
            <stop stop-color="#100f0d" offset="1"/></linearGradient>

        <pattern id="a" width="154.02782" height="107.51471" patternTransform="translate(412.81 -10.707)"
                 patternUnits="userSpaceOnUse" preserveAspectRatio="xMidYMid">
            <path d="m0.09586 107.51-0.09586-107.06 154.03-0.22866-0.30927 107.24z" clip-path="url(#c)" fill="url(#f)"
                  stroke-width=".020986"/>
            <path d="m0.09586 39.989h0.020522c18.24-0.49994 27.494-2.7528 36.249-11.947 9.892-14.943 10.939-13.104 15-15.261l3.4876-1.0151c22.175-4.7234 38.218-3.5823 54.381-11.516 13.31-0.55011 15.031-0.021457 19.293-0.021457v0.021457h-0.011v0.021457h-0.0205v0.021457c-1.0819 1.4418-4.9631 3.8373-13.792 6.995v0.021457c-8.6034 3.4414-26.527 5.1238-47.288 14.999-14.863 7.8471-13.676 21.115-28.816 27.208-12.485 5.1007-26.446 3.1259-38.483 12.788z"
                  clip-path="url(#f)" fill="url(#b)" stroke-width=".020986"/>
            <path d="m9.0669 38.442c-0.44362-1.4018-1.1789-2.6643-2.131-3.7091 0.72371 0.05278 1.4467 0.07767 2.1691 0.07767 5.8137-2.15e-4 11.572-1.6106 17.097-3.192 0.15324-0.04399 0.31837-0.08774 0.4779-0.08774 0.07137 0 0.14204 0.0088 0.20921 0.03026 0.28478 0.09054 0.39254 0.38064 0.31137 0.6126-0.08047 0.23195-0.30018 0.41668-0.51708 0.58664-3.0698 2.4047-7.186 3.8589-11.409 4.6571-1.4638 0.2768-3.7819 0.66794-6.2076 1.0246"
                  clip-path="url(#h)" fill="url(#b)" stroke-width=".020986"/>
            <g transform="matrix(69.971 0 0 69.971 -412.81 10.707)">
                <circle cx="6.6098" cy=".29112" r=".00242" fill="#52878d" stroke-width=".0022494">
                </circle>
                <circle cx="6.3055" cy=".37135" r=".00184" fill="#52878d" stroke-width=".0022494">
                </circle>
                <circle cx="6.3776" cy=".40129" r=".00207" fill="#52878d" stroke-width=".0022494">
                </circle>
                <circle cx="6.4212" cy=".45994" r=".00345" fill="#52878d" stroke-width=".0022494">
                </circle>
                <circle cx="6.3226" cy=".4926" r=".00299" fill="#52878d" stroke-width=".0022494">
                </circle>
                <circle cx="6.7889" cy=".35621" r=".00437" fill="#52878d" stroke-width=".0022494">
                </circle>
                <circle cx="6.6575" cy=".36748" r=".0023" fill="#52878d" stroke-width=".0022494">
                </circle>
                <circle cx="6.4578" cy=".29342" r=".00138" fill="#52878d" stroke-width=".0022494">
                </circle>
                <circle cx="6.4894" cy=".28928" r=".00207" fill="#52878d" stroke-width=".0022494">
                </circle>
                <circle cx="6.2985" cy=".20855" r=".00575" fill="#52878d" stroke-width=".0022494">
                </circle>
                <circle cx="6.1784" cy=".34862" r=".00322" fill="#52878d" stroke-width=".0022494">
                </circle>
                <circle cx="6.2347" cy=".45603" r=".00207" fill="#52878d" stroke-width=".0022494">
                </circle>
                <circle cx="6.2593" cy=".28514" r=".00322" fill="#52878d" stroke-width=".0022494">
                </circle>
                <circle cx="6.3009" cy=".2465" r=".00253" fill="#52878d" stroke-width=".0022494">
                </circle>
                <circle cx="6.2045" cy=".20579" r=".00184" fill="#52878d" stroke-width=".0022494">
                </circle>
                <circle cx="6.4391" cy=".53216" r=".001725" fill="#52878d" stroke-width=".0022494">
                </circle>
                <circle cx="6.762" cy=".23983" r=".00483" fill="#52878d" stroke-width=".0022494">
                </circle>
                <circle cx="6.5106" cy=".23178" r=".0023" fill="#52878d" stroke-width=".0022494">
                </circle>
                <circle cx="6.3922" cy=".10781" r=".00368" fill="#52878d" stroke-width=".0022494">
                </circle>
                <circle cx="6.432" cy=".36932" r=".00575" fill="#52878d" stroke-width=".0022494">
                </circle>
            </g>
        </pattern>
    </defs>


    <g transform="matrix(10.635,0,0,10.635,-8.2341e-6,3.6429)">
        <path d="m0.18916 0.49221s-9e-3 0.048-0.013 0.079c-2e-3 0.015 1e-3 0.021 9e-3 0.027 0.018 9e-3 0.054 0.013 0.074 0.011 9e-3 -3e-3 0.014-8e-3 0.014-0.024 3e-3 -0.038-3e-3 -0.092-3e-3 -0.092m-0.165-0.052s-0.027 0.027-0.029 0.035c-3e-3 8e-3 -1e-3 0.012 1e-3 0.015 4e-3 6e-3 0.024 0.023 0.037 0.024 0.011 0 0.013-1e-3 0.019-6e-3 9e-3 -8e-3 0.028-0.041 0.028-0.041zm0.408 0.051s9e-3 0.048 0.013 0.079c2e-3 0.015-1e-3 0.021-9e-3 0.027-0.018 9e-3 -0.054 0.013-0.074 0.011-9e-3 -3e-3 -0.014-8e-3 -0.014-0.024-3e-3 -0.038 3e-3 -0.092 3e-3 -0.092m0.164-0.052s0.027 0.027 0.029 0.035c3e-3 8e-3 1e-3 0.012-1e-3 0.015-4e-3 6e-3 -0.024 0.023-0.037 0.024-0.011 0-0.013-1e-3 -0.019-6e-3 -9e-3 -8e-3 -0.028-0.041-0.028-0.041z"
              fill="#0eb188"/>
        <path d="m0.10549 0.1427c-0.042462-0.018359-0.051275 0.015021-0.035252 0.03922-0.045667-0.003338-0.056884 0.045062-0.028842 0.067593-0.033649 0.002503-0.044866 0.050903-0.021632 0.065089-0.042462 0.047565-0.0088129 0.10264 0.028842 0.10181-8.0116e-4 0.041724 0.024035 0.045062 0.036053 0.043393 0.01362 0.032545 0.052077 0.040889 0.067299 0.035883 0.01362 0.047565 0.069702 0.049234 0.085726 0.03171 0.036053 0.046731 0.09534 0.023365 0.098545 0 0.036854 0.0484 0.098545 0.017524 0.10015-0.015855 0.049673 0.041724 0.10175-0.00668 0.09534-0.025869 0.036854 0.020027 0.080118-0.00167 0.086527-0.057579 0.036053-0.00501 0.056082-0.050069 0.041661-0.075103 0.040059-0.017524 0.028041-0.072599 8.0168e-4 -0.097634 0.034451-0.035048 0.002402-0.083448-0.041661-0.099303 0.014421-0.028372-0.019228-0.050903-0.033649-0.046731-0.003205-0.035883-0.045667-0.035048-0.061691-0.017524-0.011216-0.015855-0.067299-0.018358-0.070504-0.006676-0.034451-0.01669-0.093738-0.009179-0.093738 0.006676-0.012819-0.015855-0.11056-0.009179-0.11377 0.00751 0 0-0.071305-0.002503-0.084925 0.016689-0.020831-0.010014-0.057685 0.009179-0.055282 0.026703z"
              fill="url(#c)"/>
        <path d="m0.21116 0.15921c-0.013 0.059-7e-3 0.153-5e-3 0.168 0.01 0.038 0.04 0.06 0.077 0.072 0.027 7e-3 0.111 2e-3 0.121-2e-3 0.054-9e-3 0.071-0.039 0.071-0.078 1e-3 -0.04-0.016-0.153-0.022-0.163-0.051-0.05-0.151-0.07-0.243 4e-3zm-0.013-0.03s-0.094-0.098-0.071-0.116c0.017-0.021 0.115 0.034 0.115 0.034zm0.273 5e-3s0.076-0.114 0.051-0.127c-0.02-0.017-0.108 0.055-0.108 0.055z"
              fill="#0eb188"/>
        <path d="m0.20916 0.11321s-0.072-0.067-0.056-0.079c0.012-0.014 0.084 0.027 0.084 0.027zm0.251 7e-3s0.06-0.079 0.042-0.088c-0.014-0.012-0.078 0.042-0.078 0.042z"
              fill="#0a7c6d"/>
        <g clip-path="url(#h)">
            <path d="m0.26064 0.43673c0.00436 0.00194 0.008661 0.004511 0.013318 0.004602 0.001184 2.138e-5 0.002451-7.571e-5 0.00347 6.4613e-4 0.001171 8.2596e-4 0.001672 0.002486 0.002385 0.00386 0.002179 0.004188 0.006535 0.005934 0.010606 0.006953 0.004066 0.001022 0.008418 0.001747 0.011647 0.004846 0.003229 0.0031 0.004521 0.009635 0.001357 0.012823-0.002114 0.002131-0.005375 0.001909-0.007858 4.292e-4 -0.002481-0.001478-0.004396-0.003977-0.00637-0.006295-0.005562-0.006522-0.012022-0.011969-0.01905-0.016066-0.004142-0.002414-0.034085-0.021666-0.06581-0.042264s-0.065231-0.042541-0.076501-0.050339c0.024581 0.016196 0.052204 0.033913 0.076472 0.048823s0.045179 0.027012 0.056337 0.031979"
                  fill="url(#g)" stroke-width=".00028998">
            </path>
        </g>
        <path d="m0.24536 0.16503c0 0.018914 0.009873 0.066005 0.09094 0.026151 0.019456 0.016212 0.083012 0.020265 0.098577-0.02094 0.045397 0.015536 0.069393-0.029722 0.029833-0.063496 0.012322-0.010132-0.005188-0.044583-0.033724-0.038503 0.020738-0.027947-0.01953-0.10061-0.085079-0.050153-0.021402-0.032424-0.068905-0.016887-0.079282 0.012834-0.016153-0.017735-0.053216-0.006608-0.063322 0.043875-0.019736 0.008891-0.050249 0.03027-0.011169 0.058872-0.002712 0.042935 0.032797 0.034365 0.053225 0.03136z"
              fill="url(#e)"/>
        <path d="m0.41716 0.28621c-0.006564 0.013063-0.017799 0.024751-0.018102 0.038874-2.1434e-4 0.009995 0.008105 0.0181 0.018102 0.0181 0.009997 3e-8 0.019289-0.008174 0.018102-0.0181-0.001663-0.013909-0.011723-0.026341-0.018102-0.038874z"
              fill="#93eafc" stroke-width=".0015048" style="-inkscape-stroke:none"/>
        <path d="m0.26388 0.21084 0.004239 0.073667-0.13869 0.06039-0.005268-0.16094z" fill="#fbc259"
              fill-opacity=".72157" stroke-linejoin="bevel" stroke-width=".0054016">
        </path>
        <path d="m0.41024 0.21088-0.004011 0.073631 0.13537 0.058936 0.008603-0.1595z" fill="#fbc259"
              fill-opacity=".72157" stroke-linejoin="bevel" stroke-width=".0054016">
        </path>
        <ellipse cx=".25716" cy=".24821" rx=".037" ry=".038" fill="#fbc259"/>
        <ellipse transform="scale(-1,1)" cx="-.41716" cy=".24821" rx=".037" ry=".038" fill="#fbc259"/>
        <ellipse cx=".11716" cy=".26521" rx=".052" ry=".082" fill="#fbc259">
        </ellipse>
        <ellipse transform="scale(-1,1)" cx="-.55716" cy=".26521" rx=".052" ry=".082" fill="#fbc259">
        </ellipse>
        <path d="m0.29516 0.34121c0.028 9e-3 0.068 0.01 0.09-1e-3m-0.042 9e-3v0.054" fill="none" stroke="#212d69"
              stroke-linejoin="bevel" stroke-width=".009"/>
</g>
    <g>
    <g>
        <circle cx="6.4719" cy="2.8176" r="1.2309" fill="#fbe259" stroke-width=".017527" style="-inkscape-stroke:none"/>
        <path d="m6.4713 3.2838a0.21409 0.22098 0 0 0-0.21409 0.22099 0.21409 0.22098 0 0 0 0.00696 0.055408 0.21409 0.22098 0 0 1 0.20773-0.1686 0.21409 0.22098 0 0 1 0.20717 0.16533 0.21409 0.22098 0 0 0 0.00632-0.052142 0.21409 0.22098 0 0 0-0.21409-0.22099z"
              stroke-width=".01105" style="-inkscape-stroke:none"/>
        <g transform="translate(.079335 -.013222)"><path d="m7.0215 2.2705-0.27413-0.10497-0.0061889 0.17885zm-1.2579 0 0.27413-0.10497 0.00619 0.17885z" stroke-width=".016004" style="-inkscape-stroke:none"/>
            <path d="m6.7461 2.5938s0.032261 0.060711-0.011407 0.17738c-0.040311 0.1077-0.065986 0.20538-0.0085 0.35078 0.018818 0.047595 0.087668 0.09554 0.070686 0.21598-0.013608 0.096514-0.019109 0.074833-0.046875 0.14648-0.043304 0.11175-0.037678 0.24435-0.00195 0.33203 0.035727 0.087681 0.084899 0.16381 0.084899 0.16381 0.14335-0.041622 0.27305-0.14035 0.35419-0.20933 0 0-0.049588-0.01269-0.052373-0.11268-0.00328-0.11785 0.061154-0.11706 0.078129-0.27734 0.01157-0.10924-0.039339-0.2327-0.099609-0.35742-0.020302-0.042013-0.021673-0.12115 0.00652-0.20552 0.025541-0.076434 0.022774-0.091359 0.022774-0.091359zm-0.70705 0s-0.032261 0.060711 0.011407 0.17738c0.040311 0.1077 0.065986 0.20538 0.0085 0.35078-0.018818 0.047595-0.087668 0.09554-0.070686 0.21598 0.013608 0.096514 0.019109 0.074833 0.046875 0.14648 0.043304 0.11175 0.037678 0.24435 0.00195 0.33203-0.035727 0.087681-0.084899 0.16381-0.084899 0.16381-0.14335-0.041622-0.27305-0.14035-0.35419-0.20933 0 0 0.049588-0.01269 0.052373-0.11268 0.00328-0.11785-0.061154-0.11706-0.078129-0.27734-0.01157-0.10924 0.039339-0.2327 0.099609-0.35742 0.020302-0.042013 0.021673-0.12115-0.00652-0.20552-0.025541-0.076434-0.022774-0.091359-0.022774-0.091359z"
                  color="#000000" fill="#93eafc" stroke-linejoin="bevel" stroke-miterlimit="2"
                  style="-inkscape-stroke:none;paint-order:fill markers stroke"/>
            <path d="m7.2283 2.5443c0 0.15715-0.12739 0.28454-0.28454 0.28454-0.15715 0-0.28454-0.12739-0.28454-0.28454 0-0.15715 0.12739-0.28454 0.28454-0.28454 0.15715 0 0.28454 0.12739 0.28454 0.28454zm-1.6714 0c0 0.15715 0.12739 0.28454 0.28454 0.28454 0.15715 0 0.28454-0.12739 0.28454-0.28454 0-0.15715-0.12739-0.28454-0.28454-0.28454-0.15715 0-0.28454 0.12739-0.28454 0.28454z"
                  stroke-width=".016004" style="-inkscape-stroke:none"/>
            <path d="m7.0322 2.4566c0 0.03209-0.026014 0.058104-0.058105 0.058104-0.03209 0-0.058104-0.026014-0.058104-0.058104s0.026014-0.058105 0.058104-0.058105 0.058105 0.026014 0.058105 0.058105zm-1.2793 0c0 0.03209 0.026014 0.058104 0.058105 0.058104 0.03209 0 0.058104-0.026014 0.058104-0.058104s-0.026014-0.058105-0.058104-0.058105-0.058105 0.026014-0.058105 0.058105z"
                  fill="#fff" stroke-width=".016004" style="-inkscape-stroke:none"/>
            <path d="m7.1118 2.5133c0 0.03209-0.026014 0.058105-0.058104 0.058105s-0.058105-0.026014-0.058105-0.058105c0-0.03209 0.026014-0.058104 0.058105-0.058104 0.03209 0 0.058104 0.026014 0.058104 0.058104zm-1.4384 0c0 0.03209 0.026014 0.058105 0.058104 0.058105s0.058105-0.026014 0.058105-0.058105c0-0.03209-0.026014-0.058104-0.058105-0.058104-0.03209 0-0.058104 0.026014-0.058104 0.058104z"
                  fill="#fff" stroke-width=".016004" style="-inkscape-stroke:none"/></g>
    </g>
        <animateMotion begin="-1s" dur="3.5s" path="M0 1 0 -1" repeatCount="indefinite"/>
        <animate attributeName="opacity" begin="-1s" dur="3.5s" repeatCount="indefinite" values="0;1;1;1;0"/>
        <animateTransform attributeName="transform" attributeType="XML" dur="2s" repeatCount="indefinite" type="rotate"
                          values="-10 6.4681 4.0052;10 6.4681 4.0052;-10 6.4681 4.0052"/>
    </g>
    <g>
    <g transform="matrix(.6606 .14691 -.14691 .6606 1.0283 -1.9653)">
        <circle cx="6.4719" cy="2.8176" r="1.2309" fill="#fbe259" stroke-width=".017527" style="-inkscape-stroke:none"/>
        <path d="m6.4713 3.2838a0.21409 0.22098 0 0 0-0.21409 0.22099 0.21409 0.22098 0 0 0 0.00696 0.055408 0.21409 0.22098 0 0 1 0.20773-0.1686 0.21409 0.22098 0 0 1 0.20717 0.16533 0.21409 0.22098 0 0 0 0.00632-0.052142 0.21409 0.22098 0 0 0-0.21409-0.22099z"
              stroke-width=".01105" style="-inkscape-stroke:none"/>
        <g transform="translate(.079335 -.013222)"><path d="m7.0215 2.2705-0.27413-0.10497-0.0061889 0.17885zm-1.2579 0 0.27413-0.10497 0.00619 0.17885z" stroke-width=".016004" style="-inkscape-stroke:none"/>
            <path d="m6.7461 2.5938s0.032261 0.060711-0.011407 0.17738c-0.040311 0.1077-0.065986 0.20538-0.0085 0.35078 0.018818 0.047595 0.087668 0.09554 0.070686 0.21598-0.013608 0.096514-0.019109 0.074833-0.046875 0.14648-0.043304 0.11175-0.037678 0.24435-0.00195 0.33203 0.035727 0.087681 0.084899 0.16381 0.084899 0.16381 0.14335-0.041622 0.27305-0.14035 0.35419-0.20933 0 0-0.049588-0.01269-0.052373-0.11268-0.00328-0.11785 0.061154-0.11706 0.078129-0.27734 0.01157-0.10924-0.039339-0.2327-0.099609-0.35742-0.020302-0.042013-0.021673-0.12115 0.00652-0.20552 0.025541-0.076434 0.022774-0.091359 0.022774-0.091359zm-0.70705 0s-0.032261 0.060711 0.011407 0.17738c0.040311 0.1077 0.065986 0.20538 0.0085 0.35078-0.018818 0.047595-0.087668 0.09554-0.070686 0.21598 0.013608 0.096514 0.019109 0.074833 0.046875 0.14648 0.043304 0.11175 0.037678 0.24435 0.00195 0.33203-0.035727 0.087681-0.084899 0.16381-0.084899 0.16381-0.14335-0.041622-0.27305-0.14035-0.35419-0.20933 0 0 0.049588-0.01269 0.052373-0.11268 0.00328-0.11785-0.061154-0.11706-0.078129-0.27734-0.01157-0.10924 0.039339-0.2327 0.099609-0.35742 0.020302-0.042013 0.021673-0.12115-0.00652-0.20552-0.025541-0.076434-0.022774-0.091359-0.022774-0.091359z"
                  color="#000000" fill="#93eafc" stroke-linejoin="bevel" stroke-miterlimit="2"
                  style="-inkscape-stroke:none;paint-order:fill markers stroke"/>
            <path d="m7.2283 2.5443c0 0.15715-0.12739 0.28454-0.28454 0.28454-0.15715 0-0.28454-0.12739-0.28454-0.28454 0-0.15715 0.12739-0.28454 0.28454-0.28454 0.15715 0 0.28454 0.12739 0.28454 0.28454zm-1.6714 0c0 0.15715 0.12739 0.28454 0.28454 0.28454 0.15715 0 0.28454-0.12739 0.28454-0.28454 0-0.15715-0.12739-0.28454-0.28454-0.28454-0.15715 0-0.28454 0.12739-0.28454 0.28454z"
                  stroke-width=".016004" style="-inkscape-stroke:none"/>
            <path d="m7.0322 2.4566c0 0.03209-0.026014 0.058104-0.058105 0.058104-0.03209 0-0.058104-0.026014-0.058104-0.058104s0.026014-0.058105 0.058104-0.058105 0.058105 0.026014 0.058105 0.058105zm-1.2793 0c0 0.03209 0.026014 0.058104 0.058105 0.058104 0.03209 0 0.058104-0.026014 0.058104-0.058104s-0.026014-0.058105-0.058104-0.058105-0.058105 0.026014-0.058105 0.058105z"
                  fill="#fff" stroke-width=".016004" style="-inkscape-stroke:none"/>
            <path d="m7.1118 2.5133c0 0.03209-0.026014 0.058105-0.058104 0.058105s-0.058105-0.026014-0.058105-0.058105c0-0.03209 0.026014-0.058104 0.058105-0.058104 0.03209 0 0.058104 0.026014 0.058104 0.058104zm-1.4384 0c0 0.03209 0.026014 0.058105 0.058104 0.058105s0.058105-0.026014 0.058105-0.058105c0-0.03209-0.026014-0.058104-0.058105-0.058104-0.03209 0-0.058104 0.026014-0.058104 0.058104z"
                  fill="#fff" stroke-width=".016004" style="-inkscape-stroke:none"/></g>

    </g>
        <animateMotion begin="-0.5s" dur="2.5s" path="M0 1 0 -1" repeatCount="indefinite"/>
        <animate attributeName="opacity" begin="-0.5s" dur="2.5s" repeatCount="indefinite" values="0;1;1;1;0"/>
        <animateTransform attributeName="transform" attributeType="XML" dur="2s" repeatCount="indefinite" type="rotate"
                          values="-10 4.6314 1.6936;10 4.6314 1.6936;-10 4.6314 1.6936"/>
    </g>
    <g>
    <g transform="matrix(.47014 -.19531 .19531 .47014 3.5182 .78324)">
        <circle cx="6.4719" cy="2.8176" r="1.2309" fill="#fbe259" stroke-width=".017527" style="-inkscape-stroke:none"/>
        <path d="m6.4713 3.2838a0.21409 0.22098 0 0 0-0.21409 0.22099 0.21409 0.22098 0 0 0 0.00696 0.055408 0.21409 0.22098 0 0 1 0.20773-0.1686 0.21409 0.22098 0 0 1 0.20717 0.16533 0.21409 0.22098 0 0 0 0.00632-0.052142 0.21409 0.22098 0 0 0-0.21409-0.22099z"
              stroke-width=".01105" style="-inkscape-stroke:none"/>
        <g transform="translate(.079335 -.013222)"><path d="m7.0215 2.2705-0.27413-0.10497-0.0061889 0.17885zm-1.2579 0 0.27413-0.10497 0.00619 0.17885z" stroke-width=".016004" style="-inkscape-stroke:none"/>
            <path d="m6.7461 2.5938s0.032261 0.060711-0.011407 0.17738c-0.040311 0.1077-0.065986 0.20538-0.0085 0.35078 0.018818 0.047595 0.087668 0.09554 0.070686 0.21598-0.013608 0.096514-0.019109 0.074833-0.046875 0.14648-0.043304 0.11175-0.037678 0.24435-0.00195 0.33203 0.035727 0.087681 0.084899 0.16381 0.084899 0.16381 0.14335-0.041622 0.27305-0.14035 0.35419-0.20933 0 0-0.049588-0.01269-0.052373-0.11268-0.00328-0.11785 0.061154-0.11706 0.078129-0.27734 0.01157-0.10924-0.039339-0.2327-0.099609-0.35742-0.020302-0.042013-0.021673-0.12115 0.00652-0.20552 0.025541-0.076434 0.022774-0.091359 0.022774-0.091359zm-0.70705 0s-0.032261 0.060711 0.011407 0.17738c0.040311 0.1077 0.065986 0.20538 0.0085 0.35078-0.018818 0.047595-0.087668 0.09554-0.070686 0.21598 0.013608 0.096514 0.019109 0.074833 0.046875 0.14648 0.043304 0.11175 0.037678 0.24435 0.00195 0.33203-0.035727 0.087681-0.084899 0.16381-0.084899 0.16381-0.14335-0.041622-0.27305-0.14035-0.35419-0.20933 0 0 0.049588-0.01269 0.052373-0.11268 0.00328-0.11785-0.061154-0.11706-0.078129-0.27734-0.01157-0.10924 0.039339-0.2327 0.099609-0.35742 0.020302-0.042013 0.021673-0.12115-0.00652-0.20552-0.025541-0.076434-0.022774-0.091359-0.022774-0.091359z"
                  color="#000000" fill="#93eafc" stroke-linejoin="bevel" stroke-miterlimit="2"
                  style="-inkscape-stroke:none;paint-order:fill markers stroke"/>
            <path d="m7.2283 2.5443c0 0.15715-0.12739 0.28454-0.28454 0.28454-0.15715 0-0.28454-0.12739-0.28454-0.28454 0-0.15715 0.12739-0.28454 0.28454-0.28454 0.15715 0 0.28454 0.12739 0.28454 0.28454zm-1.6714 0c0 0.15715 0.12739 0.28454 0.28454 0.28454 0.15715 0 0.28454-0.12739 0.28454-0.28454 0-0.15715-0.12739-0.28454-0.28454-0.28454-0.15715 0-0.28454 0.12739-0.28454 0.28454z"
                  stroke-width=".016004" style="-inkscape-stroke:none"/>
            <path d="m7.0322 2.4566c0 0.03209-0.026014 0.058104-0.058105 0.058104-0.03209 0-0.058104-0.026014-0.058104-0.058104s0.026014-0.058105 0.058104-0.058105 0.058105 0.026014 0.058105 0.058105zm-1.2793 0c0 0.03209 0.026014 0.058104 0.058105 0.058104 0.03209 0 0.058104-0.026014 0.058104-0.058104s-0.026014-0.058105-0.058104-0.058105-0.058105 0.026014-0.058105 0.058105z"
                  fill="#fff" stroke-width=".016004" style="-inkscape-stroke:none"/>
            <path d="m7.1118 2.5133c0 0.03209-0.026014 0.058105-0.058104 0.058105s-0.058105-0.026014-0.058105-0.058105c0-0.03209 0.026014-0.058104 0.058105-0.058104 0.03209 0 0.058104 0.026014 0.058104 0.058104zm-1.4384 0c0 0.03209 0.026014 0.058105 0.058104 0.058105s0.058105-0.026014 0.058105-0.058105c0-0.03209-0.026014-0.058104-0.058105-0.058104-0.03209 0-0.058104 0.026014-0.058104 0.058104z"
                  fill="#fff" stroke-width=".016004" style="-inkscape-stroke:none"/></g>
    </g>
        <animateMotion begin="-0.5s" dur="2.5s" path="M0 1 0 -1" repeatCount="indefinite"/>
        <animate attributeName="opacity" begin="-0.5s" dur="2.5s" repeatCount="indefinite" values="0;1;1;1;0"/>
        <animateTransform attributeName="transform" attributeType="XML" dur="2s" repeatCount="indefinite" type="rotate"
                          values="-10 7.3592 1.471;10 7.3592 1.471;-10 7.3592 1.471"/>
    </g>
</svg>
