<?xml version="1.0" encoding="UTF-8" standalone="no"?>
<svg
   width="126.15611"
   height="81.235443"
   viewBox="0 0 1.8029809 1.1609899"
   version="1.1"
   id="svg41"
   sodipodi:docname="tenzu_rocket_animated.svg"
   inkscape:version="1.3.2 (091e20e, 2023-11-25)"
   inkscape:export-filename="tenzu_logo_clean_full.png"
   inkscape:export-xdpi="96"
   inkscape:export-ydpi="96"
   xml:space="preserve"
   xmlns:inkscape="http://www.inkscape.org/namespaces/inkscape"
   xmlns:sodipodi="http://sodipodi.sourceforge.net/DTD/sodipodi-0.dtd"
   xmlns:xlink="http://www.w3.org/1999/xlink"
   xmlns="http://www.w3.org/2000/svg"
   xmlns:svg="http://www.w3.org/2000/svg">
    <sodipodi:namedview
   id="namedview41"
   pagecolor="#ffffff"
   bordercolor="#000000"
   borderopacity="0.25"
   inkscape:showpageshadow="2"
   inkscape:pageopacity="0.0"
   inkscape:pagecheckerboard="0"
   inkscape:deskcolor="#d1d1d1"
   inkscape:zoom="5.1044572"
   inkscape:cx="46.136149"
   inkscape:cy="55.637649"
   inkscape:window-width="1728"
   inkscape:window-height="597"
   inkscape:window-x="0"
   inkscape:window-y="98"
   inkscape:window-maximized="0"
   inkscape:current-layer="g2"
   showgrid="false"
   showguides="true" />
    <defs
   id="defs31">
        <pattern
   inkscape:collect="always"
   xlink:href="#pattern9"
   preserveAspectRatio="xMidYMid"
   id="pattern11"
   patternTransform="matrix(0.01457327,0,0,0.01344131,547.40669,-13.128257)"
   x="0"
   y="0" />
        <pattern
   inkscape:collect="always"
   xlink:href="#pattern9"
   preserveAspectRatio="xMidYMid"
   id="pattern10"
   patternTransform="matrix(0.01,0,0,0.01,412.9705,-10.925784)"
   x="-16"
   y="0" />
        <clipPath
   id="cut-off-body">
            <path
   d="M 0.10548933,0.14269878 C 0.06302695,0.12434018 0.054214,0.15771938 0.07023754,0.18191908 c -0.0456671,-0.003338 -0.05688359,0.0450618 -0.02884235,0.0675926 -0.03364945,0.002503 -0.04486596,0.0509031 -0.02163181,0.0650892 -0.04246238,0.0475651 -0.0088129,0.10264071 0.02884237,0.10180621 -8.0116e-4,0.041724 0.02403534,0.045062 0.03605299,0.043393 0.01362004,0.032545 0.05207652,0.040889 0.06729888,0.035883 0.01362,0.047565 0.0697024,0.049234 0.0857259,0.03171 0.036053,0.046731 0.0953401,0.023365 0.0985448,0 0.0368541,0.0484 0.0985447,0.017524 0.10014711,-0.015855 0.0496731,0.041724 0.10174963,-0.00668 0.09534,-0.025869 0.0368542,0.020027 0.0801177,-0.00167 0.0865272,-0.057579 0.036053,-0.00501 0.0560824,-0.050069 0.0416612,-0.075103 0.040059,-0.017524 0.0280413,-0.0725994 8.0168e-4,-0.0976337 0.0344506,-0.035048 0.002402,-0.0834476 -0.0416614,-0.0993027 0.0144214,-0.0283722 -0.0192281,-0.0509032 -0.0336493,-0.0467307 -0.003205,-0.0358826 -0.0456672,-0.0350479 -0.0616907,-0.0175239 -0.0112165,-0.0158551 -0.0672989,-0.0183584 -0.0705037,-0.006676 -0.0344506,-0.0166895 -0.0937376,-0.009179 -0.0937376,0.006676 -0.0128187,-0.0158551 -0.11056243,-0.009179 -0.11376713,0.00751 0,0 -0.0713048,-0.002503 -0.0849248,0.0166894 -0.0208306,-0.0100137 -0.0576847,0.009179 -0.0552815,0.0267033 z"
   id="body_clip" />
        </clipPath>
        <linearGradient
   id="b"
   x1="0"
   x2="1"
   y1="0"
   y2="0"
   gradientTransform="matrix(7120.0327,7169.9143,7169.9143,-7120.0327,474.06512,-795.31258)"
   gradientUnits="userSpaceOnUse"
   spreadMethod="pad">
            <stop
   offset="0"
   stop-color="#25316d"
   id="stop1" />
            <stop
   offset="1"
   stop-color="#100f0d"
   id="stop2" />
        </linearGradient>
        <linearGradient
   id="d"
   x1="0"
   x2="1"
   y1="0"
   y2="0"
   gradientTransform="matrix(7120.0327,7169.9143,7169.9143,-7120.0327,474.06512,-795.31258)"
   gradientUnits="userSpaceOnUse"
   spreadMethod="pad">
            <stop
   offset="0"
   stop-color="#2a3c96"
   id="stop3" />
            <stop
   offset="1"
   stop-color="#100f0d"
   id="stop4" />
        </linearGradient>
        <linearGradient
   id="cz"
   x1="0"
   x2="1"
   y1="0"
   y2="0"
   gradientTransform="matrix(-0.05216364,-0.02692547,-0.02276265,0.06170333,0.31823974,0.46841486)"
   gradientUnits="userSpaceOnUse"
   spreadMethod="pad">
            <stop
   offset="0"
   stop-color="#66c98e"
   id="stop7" />
            <stop
   offset="1"
   stop-color="#4d56af"
   id="stop8" />
        </linearGradient>
        <pattern
   xlink:href="#a"
   id="cJ"
   x="0"
   y="0"
   patternTransform="matrix(0.00147,0,0,0.00153,5.9011632,-0.14978843)"
   preserveAspectRatio="xMidYMid" />
        <linearGradient
   inkscape:collect="always"
   xlink:href="#b"
   id="linearGradient3"
   gradientUnits="userSpaceOnUse"
   gradientTransform="matrix(146.13346,-153.84621,147.15725,152.77589,9.8256979,124.57984)"
   x1="0"
   y1="0"
   x2="1"
   y2="0"
   spreadMethod="pad" />
        <linearGradient
   inkscape:collect="always"
   xlink:href="#d"
   id="linearGradient5"
   gradientUnits="userSpaceOnUse"
   gradientTransform="matrix(146.13346,-153.84621,147.15725,152.77589,9.8256979,124.57984)"
   x1="0"
   y1="0"
   x2="1"
   y2="0"
   spreadMethod="pad" />
        <linearGradient
   inkscape:collect="always"
   xlink:href="#d"
   id="linearGradient6"
   gradientUnits="userSpaceOnUse"
   gradientTransform="matrix(146.13346,-153.84621,147.15725,152.77589,9.8256979,124.57984)"
   x1="0"
   y1="0"
   x2="1"
   y2="0"
   spreadMethod="pad" />
        <linearGradient
   inkscape:collect="always"
   xlink:href="#b"
   id="linearGradient7"
   gradientUnits="userSpaceOnUse"
   gradientTransform="matrix(146.13349,-153.84625,147.15729,152.77593,9.8256979,124.57987)"
   x1="0"
   y1="0"
   x2="1"
   y2="0"
   spreadMethod="pad" />
        <linearGradient
   inkscape:collect="always"
   xlink:href="#d"
   id="linearGradient8"
   gradientUnits="userSpaceOnUse"
   gradientTransform="matrix(146.13349,-153.84625,147.15729,152.77593,9.8256979,124.57987)"
   x1="0"
   y1="0"
   x2="1"
   y2="0"
   spreadMethod="pad" />
        <linearGradient
   inkscape:collect="always"
   xlink:href="#d"
   id="linearGradient9"
   gradientUnits="userSpaceOnUse"
   gradientTransform="matrix(146.13349,-153.84625,147.15729,152.77593,9.8256979,124.57987)"
   x1="0"
   y1="0"
   x2="1"
   y2="0"
   spreadMethod="pad" />
        <pattern
   patternUnits="userSpaceOnUse"
   width="154.02782"
   height="107.51471"
   patternTransform="translate(412.81362,-10.706815)"
   preserveAspectRatio="xMidYMid"
   id="pattern9"
   inkscape:label="blue_bg">
            <path
   fill="url(#b)"
   d="M 0.09586006,107.51471 0,0.45736569 154.02782,0.22870096 153.71855,107.46722 Z"
   clip-path="url(#c)"
   id="path5"
   style="display:inline;fill:url(#linearGradient7);stroke-width:0.0209855"
   sodipodi:nodetypes="ccccc"
   inkscape:label="blue_bg" />
            <path
   fill="url(#d)"
   d="M 0.09586006,39.988908 H 0.11638251 C 18.355942,39.488966 27.610712,37.23607 36.365863,28.042023 46.257866,13.098791 47.305028,14.938304 51.365493,12.781185 l 3.487556,-1.015114 c 22.175,-4.7234244 38.217761,-3.5823126 54.381401,-11.51588759 13.31022,-0.55011078 15.03133,-0.0214573 19.29282,-0.0214573 v 0.0214573 h -0.011 v 0.0214573 h -0.0205 v 0.0214573 c -1.08189,1.44184029 -4.9631,3.83729219 -13.79214,6.99504489 v 0.021457 C 106.10022,10.750962 88.177049,12.43339 67.415475,22.308179 52.552212,30.155245 53.739624,43.422886 38.599396,49.515901 26.114631,54.616649 12.15325,52.641841 0.11638251,62.304392 Z"
   clip-path="url(#f)"
   id="path8"
   style="display:inline;fill:url(#linearGradient8);stroke-width:0.0209855"
   sodipodi:nodetypes="cccccccccccccccccc"
   inkscape:label="big_blue" />
            <path
   fill="url(#d)"
   d="M 9.0668921,38.442058 C 8.623277,37.040262 7.8880233,35.777715 6.93593,34.732966 c 0.7237085,0.05278 1.4467172,0.07767 2.1690962,0.07767 5.8136678,-2.15e-4 11.5718138,-1.610575 17.0969418,-3.191972 0.153237,-0.04399 0.318368,-0.08774 0.477901,-0.08774 0.07137,0 0.142041,0.0088 0.209213,0.03026 0.284782,0.09054 0.392537,0.380641 0.31137,0.612595 -0.08047,0.231953 -0.300175,0.416676 -0.517084,0.586635 -3.069831,2.404709 -7.18602,3.858865 -11.408886,4.657071 -1.46379,0.276805 -3.781925,0.667942 -6.2076039,1.024583"
   clip-path="url(#h)"
   id="path9"
   style="display:inline;fill:url(#linearGradient9);stroke-width:0.0209855"
   sodipodi:nodetypes="ccccsccccc"
   inkscape:label="small_blue" />
            <g
   id="g26"
   style="display:inline"
   transform="matrix(69.970845,0,0,69.970845,-412.81362,10.706815)">
                <circle
   cx="6.6097832"
   cy="0.29112157"
   fill="#52878d"
   id="circle6"
   r="0.00242"
   style="stroke-width:0.00224944">
                    <animate
   attributeName="r"
   dur="3s"
   values="0.00242;0.00484;0.00242"
   repeatCount="indefinite" />
                </circle>
                <circle
   cx="6.3055234"
   cy="0.37134558"
   fill="#52878d"
   id="circle7"
   r="0.00184"
   style="stroke-width:0.00224944">
                    <animate
   attributeName="r"
   dur="5s"
   values="0.00184;0.00368;0.00184"
   repeatCount="indefinite" />
                </circle>
                <circle
   cx="6.377573"
   cy="0.40129158"
   fill="#52878d"
   id="circle8"
   r="0.00207"
   style="stroke-width:0.00224944">
                    <animate
   attributeName="r"
   dur="1s"
   values="0.00207;0.00414;0.00207"
   repeatCount="indefinite" />
                </circle>
                <circle
   cx="6.4212432"
   cy="0.4599416"
   fill="#52878d"
   id="circle9"
   r="0.00345"
   style="stroke-width:0.00224944">
                    <animate
   attributeName="r"
   dur="0.5s"
   values="0.00345;0.00690;0.00345"
   repeatCount="indefinite" />
                </circle>
                <circle
   cx="6.3225732"
   cy="0.49260154"
   fill="#52878d"
   id="circle10"
   r="0.00299"
   style="stroke-width:0.00224944">
                    <animate
   attributeName="r"
   dur="5.5s"
   values="0.00299;0.00598;0.00299"
   repeatCount="indefinite" />
                </circle>
                <circle
   cx="6.7888632"
   cy="0.35621157"
   fill="#52878d"
   id="circle11"
   r="0.00437"
   style="stroke-width:0.00224944">
                    <animate
   attributeName="r"
   dur="4s"
   values="0.00437;0.00874;0.00437"
   repeatCount="indefinite" />
                </circle>
                <circle
   cx="6.6575232"
   cy="0.36748156"
   fill="#52878d"
   id="circle12"
   r="0.0023"
   style="stroke-width:0.00224944">
                    <animate
   attributeName="r"
   dur="0.6s"
   values="0.0023;0.0046;0.0023"
   repeatCount="indefinite" />
                </circle>
                <circle
   cx="6.4577632"
   cy="0.29342157"
   fill="#52878d"
   id="circle13"
   r="0.00138"
   style="stroke-width:0.00224944">
                    <animate
   attributeName="r"
   dur="0.3s"
   values="0.00138;0.00276;0.00138"
   repeatCount="indefinite" />
                </circle>
                <circle
   cx="6.4894433"
   cy="0.28928155"
   fill="#52878d"
   id="circle14"
   r="0.00207"
   style="stroke-width:0.00224944">
                    <animate
   attributeName="r"
   dur="2s"
   values="0.00207;0.00414;0.00207"
   repeatCount="indefinite" />
                </circle>
                <circle
   cx="6.2984834"
   cy="0.20855157"
   fill="#52878d"
   id="circle15"
   r="0.00575"
   style="stroke-width:0.00224944">
                    <animate
   attributeName="r"
   dur="0.8s"
   values="0.00575;0.01150;0.00575"
   repeatCount="indefinite" />
                </circle>
                <circle
   cx="6.1783633"
   cy="0.34862158"
   fill="#52878d"
   id="circle16"
   r="0.00322"
   style="stroke-width:0.00224944">
                    <animate
   attributeName="r"
   dur="1s"
   values="0.00322;0.00644;0.00322"
   repeatCount="indefinite" />
                </circle>
                <circle
   cx="6.234683"
   cy="0.45603156"
   fill="#52878d"
   id="circle17"
   r="0.00207"
   style="stroke-width:0.00224944">
                    <animate
   attributeName="r"
   dur="4s"
   values="0.00207;0.00414;0.00207"
   repeatCount="indefinite" />
                </circle>
                <circle
   cx="6.2593231"
   cy="0.28514159"
   fill="#52878d"
   id="circle18"
   r="0.00322"
   style="stroke-width:0.00224944">
                    <animate
   attributeName="r"
   dur="1.5s"
   values="0.00322;0.00644;0.00322"
   repeatCount="indefinite" />
                </circle>
                <circle
   cx="6.3009033"
   cy="0.24650158"
   fill="#52878d"
   id="circle19"
   r="0.00253"
   style="stroke-width:0.00224944">
                    <animate
   attributeName="r"
   dur="3.5s"
   values="0.00253;0.00506;0.00253"
   repeatCount="indefinite" />
                </circle>
                <circle
   cx="6.2045431"
   cy="0.20579158"
   fill="#52878d"
   id="circle20"
   r="0.00184"
   style="stroke-width:0.00224944">
                    <animate
   attributeName="r"
   dur="3s"
   values="0.00184;0.00368;0.00184"
   repeatCount="indefinite" />
                </circle>
                <circle
   cx="6.4390631"
   cy="0.53216159"
   fill="#52878d"
   id="circle21"
   r="0.001725"
   style="stroke-width:0.00224944">
                    <animate
   attributeName="r"
   dur="0.5s"
   values="0.001725;0.003450;0.001725"
   repeatCount="indefinite" />
                </circle>
                <circle
   cx="6.762023"
   cy="0.23983155"
   fill="#52878d"
   id="circle22"
   r="0.00483"
   style="stroke-width:0.00224944">
                    <animate
   attributeName="r"
   dur="3s"
   values="0.00483;0.00966;0.00483"
   repeatCount="indefinite" />
                </circle>
                <circle
   cx="6.5105634"
   cy="0.23178156"
   fill="#52878d"
   id="circle23"
   r="0.0023"
   style="stroke-width:0.00224944">
                    <animate
   attributeName="r"
   dur="5s"
   values="0.0023;0.0046;0.0023"
   repeatCount="indefinite" />
                </circle>
                <circle
   cx="6.3922033"
   cy="0.10781157"
   fill="#52878d"
   id="circle24"
   r="0.00368"
   style="stroke-width:0.00224944">
                    <animate
   attributeName="r"
   dur="2s"
   values="0.00368;0.00736;0.00368"
   repeatCount="indefinite" />
                </circle>
                <circle
   cx="6.432023"
   cy="0.36932155"
   fill="#52878d"
   id="circle25"
   r="0.00575"
   style="stroke-width:0.00224944"
   inkscape:label="circle25">
                    <animate
   attributeName="r"
   dur="5s"
   values="0.00575;0.01150;0.00575"
   repeatCount="indefinite" />
                </circle>
            </g>
        </pattern>
        <inkscape:path-effect
   effect="mirror_symmetry"
   start_point="1.12,16.48"
   end_point="5.75,13.73"
   center_point="3.435,15.105"
   id="path-effect41"
   is_visible="true"
   lpeversion="1.2"
   lpesatellites=""
   mode="free"
   discard_orig_path="false"
   fuse_paths="false"
   oposite_fuse="false"
   split_items="false"
   split_open="false"
   link_styles="false" /></defs>


    <g
   id="g2"
   transform="translate(-0.00210934)">
        <animateMotion
   dur="1s"
   repeatCount="indefinite"
   path="M0 -0.05 0 0.05 0 -0.05" />
    <g
   id="g41"
   transform="matrix(0.0767188,0.01857539,-0.01857539,0.0767188,0.74559791,-0.40730737)"
   inkscape:label="g41">
        <path
   style="fill:#d35548;fill-opacity:1;stroke-width:0.0196652;-inkscape-stroke:none"
   d="m 5.4259955,13.186653 c 0,0 -4.91806169,3.478441 -5.74838915,1.264454 -0.83032745,-2.213986 -2.35540005,2.512448 -2.35540005,2.512448 0,0 1.1026388,-1.956894 1.90126383,-0.741966 0.79862518,1.214927 -1.40621513,1.471937 -2.55560163,2.273674 -0.9351777,0.652318 -2.1787007,2.606817 -0.5838946,2.810751 -0.094445,-0.871575 0.5691051,-1.711321 2.1172516,-1.467992 1.54814785,0.24333 2.10700299,-2.994218 2.8371749,-2.874367 0,0 0.1870721,1.002227 -0.26830405,1.442493 -0.4306023,0.416315 0.40281015,1.752014 0.40281015,1.752014 0.034905,-1.152181 1.0036489,-3.351443 1.5880709,-1.564654 C 3.5027386,18.066129 1.9785996,16.43123 6.0898408,14.267674 8.7850383,12.858185 5.4259955,13.186653 5.4259955,13.186653 Z"
   id="path42"
   sodipodi:nodetypes="cscsscscscccc">
            <animate
   attributeName="d"
   dur="1s"
   values="m 5.4259955,13.186653 c 0,0 -4.91806169,3.478441 -5.74838915,1.264454 -0.83032745,-2.213986 -2.35540005,2.512448 -2.35540005,2.512448 0,0 1.1026388,-1.956894 1.90126383,-0.741966 0.79862518,1.214927 -1.40621513,1.471937 -2.55560163,2.273674 -0.9351777,0.652318 -2.1787007,2.606817 -0.5838946,2.810751 -0.094445,-0.871575 0.5691051,-1.711321 2.1172516,-1.467992 1.54814785,0.24333 2.10700299,-2.994218 2.8371749,-2.874367 0,0 0.1870721,1.002227 -0.26830405,1.442493 -0.4306023,0.416315 0.40281015,1.752014 0.40281015,1.752014 0.034905,-1.152181 1.0036489,-3.351443 1.5880709,-1.564654 C 3.5027386,18.066129 1.9785996,16.43123 6.0898408,14.267674 8.7850383,12.858185 5.4259955,13.186653 5.4259955,13.186653 Z;
           m 5.4259955,13.186653 c 0,0 -4.0552919,3.499643 -5.39831987,1.932741 -1.53882023,-1.795331 -3.07572483,0.574141 -3.07572483,0.574141 0,0 1.5238497,-0.908391 2.32247473,0.306537 0.79862523,1.214928 -0.89475983,0.992497 -2.04414673,1.794233 -0.9351776,0.652319 -0.8263318,1.107973 -1.7738609,1.697367 0.7092752,0.460836 1.0367164,0.392763 2.2002556,-0.693208 0.9770819,-0.310819 1.0593855,0.627227 2.06533884,-0.532939 0,0 0.57770508,-0.100479 0.71508715,0.493181 0.15257962,0.659325 -0.14536414,1.011848 -0.14536414,1.011848 C 1.8589535,18.854751 1.6840069,16.068338 2.268429,17.855127 3.0101902,17.327749 1.9785987,16.431228 6.0898403,14.267672 8.7850383,12.858185 5.4259955,13.186653 5.4259955,13.186653 Z;
           m 5.4259955,13.186653 c 0,0 -4.48811726,2.970231 -5.16171315,1.930628 -1.28578115,-1.984426 -3.05692605,1.108398 -3.05692605,1.108398 0,0 1.2174888,-1.219018 2.01611383,-0.0041 0.79862518,1.214927 -1.40621513,1.471937 -2.55560163,2.273674 -0.9351777,0.652318 -1.1409566,1.270836 -0.783974,2.072242 0.891722,-0.6637 0.9178521,-1.412918 2.465999,-1.169589 1.54814785,0.243329 1.03287482,-2.159884 1.76304672,-2.040034 0,0 1.05119228,0.09113 0.59581611,0.531393 -0.4306023,0.416315 0.15368654,2.216444 0.15368654,2.216444 C 1.494586,18.872739 1.7218548,16.597777 2.3062768,18.384566 3.048038,17.857188 1.9785996,16.43123 6.0898408,14.267674 8.7850383,12.858185 5.4259955,13.186653 5.4259955,13.186653 Z;
           m 5.4259955,13.186653 c 0,0 -4.0552919,3.499643 -5.39831987,1.932741 -1.53882023,-1.795331 -3.07572483,0.574141 -3.07572483,0.574141 0,0 1.5238497,-0.908391 2.32247473,0.306537 0.79862523,1.214928 -0.89475983,0.992497 -2.04414673,1.794233 -0.9351776,0.652319 -0.8263318,1.107973 -1.7738609,1.697367 0.7092752,0.460836 1.0367164,0.392763 2.2002556,-0.693208 0.9770819,-0.310819 1.0593855,0.627227 2.06533884,-0.532939 0,0 0.57770508,-0.100479 0.71508715,0.493181 0.15257962,0.659325 -0.14536414,1.011848 -0.14536414,1.011848 C 1.8589535,18.854751 1.6840069,16.068338 2.268429,17.855127 3.0101902,17.327749 1.9785987,16.431228 6.0898403,14.267672 8.7850383,12.858185 5.4259955,13.186653 5.4259955,13.186653 Z;
           m 5.4259955,13.186653 c 0,0 -4.91806169,3.478441 -5.74838915,1.264454 -0.83032745,-2.213986 -2.35540005,2.512448 -2.35540005,2.512448 0,0 1.1026388,-1.956894 1.90126383,-0.741966 0.79862518,1.214927 -1.40621513,1.471937 -2.55560163,2.273674 -0.9351777,0.652318 -2.1787007,2.606817 -0.5838946,2.810751 -0.094445,-0.871575 0.5691051,-1.711321 2.1172516,-1.467992 1.54814785,0.24333 2.10700299,-2.994218 2.8371749,-2.874367 0,0 0.1870721,1.002227 -0.26830405,1.442493 -0.4306023,0.416315 0.40281015,1.752014 0.40281015,1.752014 0.034905,-1.152181 1.0036489,-3.351443 1.5880709,-1.564654 C 3.5027386,18.066129 1.9785996,16.43123 6.0898408,14.267674 8.7850383,12.858185 5.4259955,13.186653 5.4259955,13.186653 Z"
   repeatCount="indefinite" />
            <animate
   attributeName="fill"
   dur="1s"
   values="#d35548;#d35548;#d37f48;#fbc259;#d37f48"
   repeatCount="indefinite" />
        </path>
        <path
   style="fill:#6d6b7b;fill-opacity:1;stroke-width:0.0196652;-inkscape-stroke:none"
   d="M 5.2392779,12.828034 C 7.8544105,10.144082 10.460529,7.1572042 15.759613,8.0518546 13.419756,13.144481 10.116433,13.350938 6.3313728,14.658504 Z"
   id="path38"
   sodipodi:nodetypes="cccc" />
        <circle
   style="fill:#6786b3;fill-opacity:1;stroke-width:0.0300341;-inkscape-stroke:none"
   id="circle39"
   cy="10.632221"
   cx="11.108837"
   r="1.5398389" />
        <circle
   style="fill:#9cb5d9;fill-opacity:1;stroke-width:0.0257435;-inkscape-stroke:none"
   id="path39"
   cy="10.632221"
   cx="11.108837"
   r="1.3198619" />
        <path
   style="fill:#6786b3;fill-opacity:1;stroke-width:0.0196652;-inkscape-stroke:none"
   d="m 6.2102391,11.830312 c 0,0 -2.4439406,0.550103 -2.9498614,0.12177 -0.5059206,-0.428333 -1.9862071,2.007581 -1.9862071,2.007581 l 0.018738,0.374756 c 0,0 3.4003216,-2.421621 3.9463689,-1.506386 0.5460474,0.915234 0.9709618,-0.997721 0.9709616,-0.997721 z m 1.4281136,2.404424 c 0,0 -1.6523301,1.882887 -1.5182531,2.532078 0.1340771,0.64919 -2.7131762,0.783629 -2.7131762,0.783629 L 3.086807,17.354692 c 0,0 3.7533191,-1.827302 3.2108809,-2.744681 -0.5424372,-0.917378 1.3406649,-0.375275 1.3406648,-0.375275 z"
   id="path40-3"
   inkscape:path-effect="#path-effect41"
   inkscape:original-d="m 6.2102391,11.830312 c 0,0 -2.4439406,0.550103 -2.9498614,0.12177 -0.5059206,-0.428333 -1.9862071,2.007581 -1.9862071,2.007581 l 0.018738,0.374756 c 0,0 3.4003216,-2.421621 3.9463689,-1.506386 0.5460474,0.915234 0.9709618,-0.997721 0.9709616,-0.997721 z" />
        <path
   id="path41"
   style="fill:#6786b3;fill-opacity:1;stroke-width:0.0196652;-inkscape-stroke:none"
   d="m 13.893419,7.8901364 c -0.262546,5.821e-4 -0.516615,0.013276 -0.764741,0.034361 a 2.6397238,2.6397238 0 0 0 -0.0088,0.1228743 2.6397238,2.6397238 0 0 0 1.312426,2.2751843 C 14.902806,9.6951222 15.346531,8.950935 15.759617,8.051866 15.097232,7.9400348 14.476926,7.8888427 13.893419,7.8901364 Z" />
        <rect
   style="fill:#6786b3;fill-opacity:1;stroke-width:0.00742696;-inkscape-stroke:none"
   id="rect41"
   width="0.28869218"
   height="7.0192351"
   x="14.664428"
   y="-1.182146"
   transform="matrix(0.43925327,0.89836327,-0.86007976,0.51015959,0,0)" /></g>
    <g
   id="g25"
   style="display:inline"
   transform="rotate(-18.71783,0.81349203,-1.8838615)">
        <path
   fill="#0eb188"
   d="m 0.1891632,0.49221157 c 0,0 -0.009,0.048 -0.013,0.079 -0.002,0.015 0.001,0.021 0.009,0.027 0.018,0.009 0.054,0.013 0.074,0.011 0.009,-0.003 0.014,-0.008 0.014,-0.024 0.003,-0.038 -0.003,-0.092 -0.003,-0.092 m -0.165,-0.052 c 0,0 -0.027,0.027 -0.029,0.035 -0.003,0.008 -0.001,0.012 0.001,0.015 0.004,0.006 0.024,0.023 0.037,0.024 0.011,0 0.013,-0.001 0.019,-0.006 0.009,-0.008 0.028,-0.041 0.028,-0.041 z m 0.408,0.051 c 0,0 0.009,0.048 0.013,0.079 0.002,0.015 -0.001,0.021 -0.009,0.027 -0.018,0.009 -0.054,0.013 -0.074,0.011 -0.009,-0.003 -0.014,-0.008 -0.014,-0.024 -0.003,-0.038 0.003,-0.092 0.003,-0.092 m 0.164,-0.052 c 0,0 0.027,0.027 0.029,0.035 0.003,0.008 0.001,0.012 -0.001,0.015 -0.004,0.006 -0.024,0.023 -0.037,0.024 -0.011,0 -0.013,-0.001 -0.019,-0.006 -0.009,-0.008 -0.028,-0.041 -0.028,-0.041 z"
   id="path32"
   inkscape:label="legs"
   style="display:inline" />
        <path
   fill="url(#cI)"
   d="M 0.10548933,0.14269878 C 0.06302695,0.12434018 0.054214,0.15771938 0.07023754,0.18191908 c -0.0456671,-0.003338 -0.05688359,0.0450618 -0.02884235,0.0675926 -0.03364945,0.002503 -0.04486596,0.0509031 -0.02163181,0.0650892 -0.04246238,0.0475651 -0.0088129,0.10264071 0.02884237,0.10180621 -8.0116e-4,0.041724 0.02403534,0.045062 0.03605299,0.043393 0.01362004,0.032545 0.05207652,0.040889 0.06729888,0.035883 0.01362,0.047565 0.0697024,0.049234 0.0857259,0.03171 0.036053,0.046731 0.0953401,0.023365 0.0985448,0 0.0368541,0.0484 0.0985447,0.017524 0.10014711,-0.015855 0.0496731,0.041724 0.10174963,-0.00668 0.09534,-0.025869 0.0368542,0.020027 0.0801177,-0.00167 0.0865272,-0.057579 0.036053,-0.00501 0.0560824,-0.050069 0.0416612,-0.075103 0.040059,-0.017524 0.0280413,-0.0725994 8.0168e-4,-0.0976337 0.0344506,-0.035048 0.002402,-0.0834476 -0.0416614,-0.0993027 0.0144214,-0.0283722 -0.0192281,-0.0509032 -0.0336493,-0.0467307 -0.003205,-0.0358826 -0.0456672,-0.0350479 -0.0616907,-0.0175239 -0.0112165,-0.0158551 -0.0672989,-0.0183584 -0.0705037,-0.006676 -0.0344506,-0.0166895 -0.0937376,-0.009179 -0.0937376,0.006676 -0.0128187,-0.0158551 -0.11056243,-0.009179 -0.11376713,0.00751 0,0 -0.0713048,-0.002503 -0.0849248,0.0166894 -0.0208306,-0.0100137 -0.0576847,0.009179 -0.0552815,0.0267033 z"
   id="path33"
   inkscape:label="fur_body"
   style="display:inline;fill:url(#pattern11);fill-opacity:1" />
        <path
   fill="#0eb188"
   d="m 0.2111632,0.15921157 c -0.013,0.059 -0.007,0.153 -0.005,0.168 0.01,0.038 0.04,0.06 0.077,0.072 0.027,0.007 0.111,0.002 0.121,-0.002 0.054,-0.009 0.071,-0.039 0.071,-0.078 0.001,-0.04 -0.016,-0.153 -0.022,-0.163 -0.051,-0.05 -0.151,-0.07 -0.243,0.004 z m -0.013,-0.03 c 0,0 -0.094,-0.098 -0.071,-0.116 0.017,-0.021 0.115,0.034 0.115,0.034 z m 0.273,0.005 c 0,0 0.076,-0.114 0.051,-0.127 -0.02,-0.017 -0.108,0.055 -0.108,0.055 z"
   id="path34"
   inkscape:label="face"
   style="display:inline" />
        <path
   fill="#0a7c6d"
   d="m 0.2091632,0.11321157 c 0,0 -0.072,-0.067 -0.056,-0.079 0.012,-0.014 0.084,0.027 0.084,0.027 z m 0.251,0.007 c 0,0 0.06,-0.079 0.042,-0.088 -0.014,-0.012 -0.078,0.042 -0.078,0.042 z"
   id="path35"
   inkscape:label="ears"
   style="display:inline" />
        <g
   clip-path="url(#cut-off-body)"
   id="g1"
   style="display:inline">
            <path
   fill="url(#cz)"
   d="m 0.26064436,0.4367328 c 0.00436,0.00194 0.008661,0.004511 0.0133179,0.004602 0.001184,2.138e-5 0.002451,-7.571e-5 0.00347,6.4613e-4 0.001171,8.2596e-4 0.001672,0.002486 0.002385,0.00386 0.002179,0.004188 0.006535,0.005934 0.0106064,0.006953 0.004066,0.001022 0.008418,0.001747 0.0116467,0.004846 0.003229,0.0031 0.004521,0.009635 0.001357,0.0128231 -0.002114,0.002131 -0.005375,0.001909 -0.007858,4.292e-4 -0.002481,-0.001478 -0.004396,-0.003977 -0.00637,-0.006295 -0.005562,-0.006522 -0.0120224,-0.0119688 -0.0190505,-0.0160657 -0.004142,-0.002414 -0.0340852,-0.0216664 -0.0658098,-0.0422641 -0.0317246,-0.0205977 -0.0652312,-0.0425413 -0.0765014,-0.0503391 0.0245814,0.0161965 0.0522044,0.0339133 0.0764716,0.0488227 0.0242672,0.0149094 0.0451786,0.0270115 0.0563368,0.0319788"
   id="path2"
   inkscape:label="comet"
   style="fill:url(#cz);stroke-width:0.000289983"
   sodipodi:nodetypes="cccccccccccccc">
                <animate
   dur="0.3s"
   attributeName="d"
   repeatCount="indefinite"
   values="              m 0.26064436,0.4367328 c 0.00436,0.00194 0.008661,0.004511 0.0133179,0.004602 0.001184,2.138e-5 0.002451,-7.571e-5 0.00347,6.4613e-4 0.001171,8.2596e-4 0.001672,0.002486 0.002385,0.00386 0.002179,0.004188 0.006535,0.005934 0.0106064,0.006953 0.004066,0.001022 0.008418,0.001747 0.0116467,0.004846 0.003229,0.0031 0.004521,0.009635 0.001357,0.0128231 -0.002114,0.002131 -0.005375,0.001909 -0.007858,4.292e-4 -0.002481,-0.001478 -0.004396,-0.003977 -0.00637,-0.006295 -0.005562,-0.006522 -0.0120224,-0.0119688 -0.0190505,-0.0160657 -0.004142,-0.002414 -0.0340852,-0.0216664 -0.0658098,-0.0422641 -0.0317246,-0.0205977 -0.0652312,-0.0425413 -0.0765014,-0.0503391 0.0245814,0.0161965 0.0522044,0.0339133 0.0764716,0.0488227 0.0242672,0.0149094 0.0451786,0.0270115 0.0563368,0.0319788 ;               m 0.26064436,0.4367328 c 0.00436,0.00194 0.006749,0.003341 0.0111914,0.004722 0.001184,2.138e-5 0.003645,0.001287 0.004664,0.002008 0.001171,8.2596e-4 0.002605,0.001841 0.003318,0.003215 0.002897,0.003829 0.006535,0.005097 0.0106064,0.006116 0.004066,0.001022 0.008418,0.001747 0.0116467,0.004846 0.003229,0.0031 0.004521,0.009635 0.001357,0.0128231 -0.002114,0.002131 -0.005375,0.001909 -0.007858,4.292e-4 -0.002481,-0.001478 -0.004396,-0.003977 -0.00637,-0.006295 -0.005562,-0.006522 -0.0120224,-0.0119688 -0.0190505,-0.0160657 -0.004142,-0.002414 -0.0351573,-0.0189862 -0.0668819,-0.0395839 -0.0317246,-0.0205977 -0.0617469,-0.0457575 -0.0730171,-0.0535553 0.0251174,0.0153924 0.0487201,0.0371295 0.0729873,0.0520389 0.0242672,0.0149094 0.0462507,0.0243313 0.0574089,0.0292986 ;               m 0.26064436,0.4367328 c 0.00436,0.00194 0.008661,0.004511 0.0133179,0.004602 0.001184,2.138e-5 0.002451,-7.571e-5 0.00347,6.4613e-4 0.001171,8.2596e-4 0.001672,0.002486 0.002385,0.00386 0.002179,0.004188 0.006535,0.005934 0.0106064,0.006953 0.004066,0.001022 0.008418,0.001747 0.0116467,0.004846 0.003229,0.0031 0.004521,0.009635 0.001357,0.0128231 -0.002114,0.002131 -0.005375,0.001909 -0.007858,4.292e-4 -0.002481,-0.001478 -0.004396,-0.003977 -0.00637,-0.006295 -0.005562,-0.006522 -0.0120224,-0.0119688 -0.0190505,-0.0160657 -0.004142,-0.002414 -0.0340852,-0.0216664 -0.0658098,-0.0422641 -0.0317246,-0.0205977 -0.0652312,-0.0425413 -0.0765014,-0.0503391 0.0245814,0.0161965 0.0522044,0.0339133 0.0764716,0.0488227 0.0242672,0.0149094 0.0451786,0.0270115 0.0563368,0.0319788 ;                m 0.26064436,0.4367328 c 0.00436,0.00194 0.007181,0.004264 0.0118381,0.004355 0.001184,2.138e-5 0.003265,9.6954e-4 0.004284,0.001691 0.001171,8.2596e-4 0.002338,0.001687 0.003051,0.003061 0.002179,0.004188 0.006535,0.005934 0.0106064,0.006953 0.004066,0.001022 0.008418,0.001747 0.0116467,0.004846 0.003229,0.0031 0.004521,0.009635 0.001357,0.0128231 -0.002114,0.002131 -0.005375,0.001909 -0.007858,4.292e-4 -0.002481,-0.001478 -0.004396,-0.003977 -0.00637,-0.006295 C 0.28363756,0.4580741 0.27717716,0.4526273 0.27014906,0.4485304 0.26600706,0.4461164 0.23655716,0.4256308 0.20483256,0.4050331 0.17310796,0.3844354 0.13910806,0.3649582 0.12783786,0.357407 c 0.0258146,0.0142234 0.0526977,0.0312003 0.0769649,0.0461097 0.0242672,0.0149094 0.0446853,0.0282447 0.0558435,0.033212" />
                <animateMotion
   dur="2s"
   repeatCount="indefinite"
   path="M -0.45521789,-0.27846287 0.38529502,0.24990077" />
            </path>
        </g>
        <path
   fill="url(#cJ)"
   d="m 0.24535941,0.16503174 c 0,0.0189137 0.009873,0.0660048 0.0909404,0.0261509 0.0194561,0.0162118 0.0830125,0.0202647 0.0985774,-0.0209402 0.0453974,0.0155364 0.0693933,-0.0297217 0.0298326,-0.0634961 0.0123222,-0.0101323 -0.005188,-0.0445826 -0.0337239,-0.038503 0.0207375,-0.0279472 -0.0195299,-0.1006074 -0.0850791,-0.0501531 -0.0214017,-0.0324236 -0.068905,-0.0168872 -0.0792815,0.0128344 -0.0161527,-0.0177351 -0.053216,-0.006608 -0.063322,0.0438749 -0.0197357,0.008891 -0.0502487,0.0302701 -0.0111691,0.0588719 -0.002712,0.0429347 0.0327968,0.0343653 0.0532252,0.0313603 z"
   id="path36"
   inkscape:label="fur_head1"
   style="display:inline;fill:url(#pattern10);fill-opacity:1" />
        <path
   style="display:inline;fill:#fbc259;fill-opacity:0.721569;stroke:none;stroke-width:0.00540158;stroke-linejoin:bevel"
   d="m 0.26387585,0.21084222 0.004239,0.0736668 -0.13868848,0.0603899 -0.005268,-0.16094202 z"
   id="path4"
   inkscape:label="beam_left">
            <animate
   dur="2s"
   repeatCount="indefinite"
   attributeName="d"
   values="                 m 0.26387585,0.21084222 0.004239,0.0736668 -0.0871265,0.0614422 -0.005268,-0.16094202 z ;                 m 0.26387585,0.21084222 0.004239,0.0736668 -0.13868848,0.13721027 -0.005268,-0.14338158 z ;                 m 0.26387585,0.21084222 0.004239,0.0736668 -0.19361641,0.06 0.0,-0.145 z ;                 m 0.26387585,0.21084222 0.004239,0.0736668 -0.13803693,-0.035449 -0.004566,-0.1398695 z ;                 m 0.26387585,0.21084222 0.004239,0.0736668 -0.0871265,0.0614422 -0.005268,-0.16094202 z                 " />
        </path>
        <path
   style="display:inline;fill:#fbc259;fill-opacity:0.721569;stroke:none;stroke-width:0.00540158;stroke-linejoin:bevel"
   d="m 0.41023947,0.21088288 -0.004011,0.0736313 0.13536611,0.0589359 0.008603,-0.15949934 z"
   id="path7"
   inkscape:label="beam_right">

            <animate
   dur="2s"
   repeatCount="indefinite"
   attributeName="d"
   values="                 m 0.41023947,0.21088288 -0.004011,0.0736313 0.19429405,0.0589359 0.008603,-0.14793391 z ;                 m 0.41023947,0.21088288 -0.004011,0.0736313 0.13747068,-0.0361329 0.008603,-0.14334374 z ;                 m 0.41023947,0.21088288 -0.004011,0.0736313 0.0874132,0.0598078 0.008603,-0.15949934 z ;                 m 0.41023947,0.21088288 -0.004011,0.0736313 0.13643781,0.13243197 0.008603,-0.13631956 z ;                 m 0.41023947,0.21088288 -0.004011,0.0736313 0.19429405,0.0589359 0.008603,-0.14793391 z                 " />
        </path>
        <ellipse
   cx="0.2571632"
   cy="0.24821159"
   fill="#fbc259"
   rx="0.037"
   ry="0.037999999"
   id="ellipse37"
   inkscape:label="eye_left"
   style="display:inline" />
        <ellipse
   cx="-0.41716319"
   cy="0.24821159"
   fill="#fbc259"
   rx="0.037"
   ry="0.037999999"
   transform="scale(-1,1)"
   id="ellipse38"
   inkscape:label="eye_right"
   style="display:inline" />
        <ellipse
   cx="0.1171632"
   cy="0.26521161"
   fill="#fbc259"
   rx="0.052000001"
   ry="0.082000002"
   id="ellipse39"
   inkscape:label="eye_spot_left"
   style="display:inline">
            <animateMotion
   dur="2s"
   repeatCount="indefinite"
   calcMode="linear"
   path="M 0.05289638,-0.00171225 -0.00527363,0.09087573 -0.04671946,0.00312715 -0.00582362,-0.08316321 Z" />
        </ellipse>
        <ellipse
   cx="-0.55716318"
   cy="0.26521161"
   fill="#fbc259"
   rx="0.052000001"
   ry="0.082000002"
   transform="scale(-1,1)"
   id="ellipse40"
   inkscape:label="eye_spot_right"
   style="display:inline">
            <animateMotion
   dur="2s"
   repeatCount="indefinite"
   calcMode="linear"
   path="m 0.05458692,0.00571667 -0.0571711,-0.0900375 -0.0519957,0.0866417 0.052,0.082 z" />
        </ellipse>
        <path
   fill="none"
   stroke="#212d69"
   stroke-linejoin="bevel"
   stroke-width="0.009"
   d="m 0.2951632,0.34121157 c 0.028,0.009 0.068,0.01 0.09,-0.001 m -0.042,0.009 v 0.054"
   id="path40"
   inkscape:label="nose"
   style="display:inline" />
        
        
</g>
    </g>
</svg>
